<svg xmlns="http://www.w3.org/2000/svg" id="Layer_1" viewBox="0 0 178.8 45.13"><defs><style>.cls-1{stroke-width:2px;}.cls-1,.cls-2,.cls-3,.cls-4,.cls-5{stroke:#fff;stroke-miterlimit:10;}.cls-1,.cls-3,.cls-4,.cls-5{fill:none;}.cls-2{font-size:30.37px;stroke-width:.5px;}.cls-2,.cls-6{font-family:Baskerville, Baskerville;}.cls-2,.cls-6,.cls-7{fill:#fff;}.cls-8{fill:#000;}.cls-8,.cls-7{stroke-width:0px;}.cls-4{stroke-width:.75px;}.cls-6{font-size:34.34px;}.cls-5{stroke-width:.65px;}</style></defs><rect class="cls-8" x="3.47" y="2.66" width="39.56" height="39.53"></rect><rect class="cls-3" x="3.66" y="2.81" width="39.32" height="39.32"></rect><line class="cls-1" x1="22.09" y1="22.95" x2="22.09" y2="42.38"></line><line class="cls-5" x1="22.09" y1="21.97" x2="18.5" y2="42.35"></line><line class="cls-5" x1="22.09" y1="21.97" x2="15.23" y2="42.38"></line><line class="cls-5" x1="22.09" y1="21.97" x2="12.29" y2="42.38"></line><line class="cls-5" x1="22.09" y1="21.97" x2="9.35" y2="42.38"></line><line class="cls-5" x1="22.09" y1="21.97" x2="6.4" y2="42.38"></line><line class="cls-5" x1="22.09" y1="21.97" x2="3.46" y2="42.38"></line><line class="cls-5" x1="22.09" y1="21.97" x2="25.61" y2="42.27"></line><line class="cls-5" x1="22.09" y1="21.97" x2="28.96" y2="42.38"></line><line class="cls-5" x1="22.09" y1="21.97" x2="31.9" y2="42.38"></line><line class="cls-5" x1="22.09" y1="21.97" x2="34.84" y2="42.38"></line><line class="cls-5" x1="22.09" y1="21.97" x2="37.78" y2="42.38"></line><line class="cls-5" x1="22.09" y1="21.97" x2="40.73" y2="42.38"></line><line class="cls-5" x1="22.09" y1="21.97" x2="42.69" y2="41.4"></line><line class="cls-3" y1="28.24" x2="22.32" y2="28.24"></line><circle class="cls-4" cx="23.3" cy="22.33" r="19"></circle><rect class="cls-4" x="21.9" y="22.22" width=".4" height=".4" transform="translate(22.32 -9.06) rotate(45)"></rect><text class="cls-2" transform="translate(3.16 25.6)"><tspan x="0" y="0">N</tspan></text><text class="cls-2" transform="translate(18.07 31.68)"><tspan x="0" y="0">T</tspan></text><polygon class="cls-7" points="33.84 33.74 6.48 33.39 6.49 32.87 33.84 32.8 33.84 33.74"></polygon><text class="cls-6" transform="translate(49.85 33.31)"><tspan x="0" y="0">Neothink</tspan></text></svg>