<svg xmlns="http://www.w3.org/2000/svg" width="20" height="24" viewBox="0 0 20 24" fill="none"><g clip-path="url(#clip0_2180_1031)"><path d="M19.3636 8.1816C19.2211 8.2896 16.7052 9.6744 16.7052 12.7536C16.7052 16.3152 19.9066 17.5752 20.0025 17.6064C19.9877 17.6832 19.4939 19.332 18.3145 21.012C17.2629 22.4904 16.1646 23.9664 14.4939 23.9664C12.8231 23.9664 12.3931 23.0184 10.4644 23.0184C8.58477 23.0184 7.91646 23.9976 6.38821 23.9976C4.85995 23.9976 3.79361 22.6296 2.56757 20.9496C1.14742 18.9768 0 15.912 0 13.0032C0 8.3376 3.10565 5.8632 6.16216 5.8632C7.78624 5.8632 9.14005 6.9048 10.1597 6.9048C11.1302 6.9048 12.6437 5.8008 14.4914 5.8008C15.1916 5.8008 17.7076 5.8632 19.3636 8.1816ZM13.6143 3.8256C14.3784 2.94 14.9189 1.7112 14.9189 0.4824C14.9189 0.312 14.9042 0.1392 14.8722 0C13.629 0.0456 12.1499 0.8088 11.258 1.8192C10.5577 2.5968 9.90418 3.8256 9.90418 5.0712C9.90418 5.2584 9.93612 5.4456 9.95086 5.5056C10.0295 5.52 10.1572 5.5368 10.285 5.5368C11.4005 5.5368 12.8034 4.8072 13.6143 3.8256Z" fill="white"></path></g><defs><clipPath id="clip0_2180_1031"><rect width="20" height="24" fill="white"></rect></clipPath></defs></svg>